PathFileType  4	(X/Y/Z) C:\Users\antoi\Documents\MyRepositories\mobilecap\ResultsAnalysis
DataRate	CameraRate	NumFrames	NumMarkers	Units	OrigDataRate	OrigDataStartFrame	OrigNumFrames
100.0	100.0	4	51	mm	100.0	139	184
Frame#	Time	r_knee			r_shank_antsup			r_ankle			r_calc			r_5meta			r_toe			L_knee			L_shank_antsup			L_ankle			L_calc			L_5meta			L_toe			r_sh2			r_sh3			r_sh4			L_sh2			L_sh3			r_thigh1			r_thigh2			r_thigh3			r_thigh4			r_thigh5			L_thigh1			L_thigh2			L_thigh3			L_thigh4			r.ASIS			r.PSIS			L.ASIS			L.PSIS			C7			R_Shoulder			L_Shoulder			R_Sternum			L_Sternum			R_humerus			R_elbow_med			R_elbow_lat			R_forearm			R_wrist_radius			R_wrist_ulna			L_humerus			L_elbow_med			L_elbow_lat			L_forearm			L_wrist_radius			L_wrist_ulna			R_HJC			L_HJC			R_HJC_reg			L_HJC_reg			
		X1	Y1	Z1	X2	Y2	Z2	X3	Y3	Z3	X4	Y4	Z4	X5	Y5	Z5	X6	Y6	Z6	X7	Y7	Z7	X8	Y8	Z8	X9	Y9	Z9	X10	Y10	Z10	X11	Y11	Z11	X12	Y12	Z12	X13	Y13	Z13	X14	Y14	Z14	X15	Y15	Z15	X16	Y16	Z16	X17	Y17	Z17	X18	Y18	Z18	X19	Y19	Z19	X20	Y20	Z20	X21	Y21	Z21	X22	Y22	Z22	X23	Y23	Z23	X24	Y24	Z24	X25	Y25	Z25	X26	Y26	Z26	X27	Y27	Z27	X28	Y28	Z28	X29	Y29	Z29	X30	Y30	Z30	X31	Y31	Z31	X32	Y32	Z32	X33	Y33	Z33	X34	Y34	Z34	X35	Y35	Z35	X36	Y36	Z36	X37	Y37	Z37	X38	Y38	Z38	X39	Y39	Z39	X40	Y40	Z40	X41	Y41	Z41	X42	Y42	Z42	X43	Y43	Z43	X44	Y44	Z44	X45	Y45	Z45	X46	Y46	Z46	X47	Y47	Z47	X48	Y48	Z48	X49	Y49	Z49	X50	Y50	Z50	X51	Y51	Z51	

139	1.38000000	1207.95862	626.26839	-69.29853	1251.38073	483.19327	-72.26426	1235.75924	114.40261	-85.93991	1192.27215	80.66533	-155.80326	1376.51654	77.97215	-44.67028	1413.84110	116.17384	-89.02586	997.84497	615.84816	-366.28956	1003.13866	415.38214	-330.84959	863.75488	133.44415	-321.87723	796.88282	113.93294	-261.37749	990.53848	33.22807	-343.31237	1031.43874	57.29666	-282.00213	1262.68924	371.09446	-79.98213	1184.73543	471.79747	-38.38512	1190.80346	358.75573	-38.18708	943.40965	430.05756	-394.10662	911.24421	319.49756	-372.56915	1163.20858	910.20019	-34.93500	1204.59850	808.17087	-39.27440	1153.84613	763.16701	-35.65982	1059.79489	872.79452	-66.49878	1101.26183	765.59908	-60.18563	1033.84226	918.61951	-404.78860	1000.84481	786.84749	-402.95989	1137.11635	890.22036	-375.55065	1102.25787	760.68274	-368.70710	1145.93452	1192.30316	-79.93389	979.62230	1220.18868	-193.76780	1187.88870	1156.51959	-354.62790	995.22131	1219.63105	-285.16546	1116.43202	1678.96148	-364.66062	1162.66240	1672.49480	-173.19387	1193.31072	1582.89142	-511.11952	1233.69158	1583.75798	-294.68108	1241.06082	1570.47726	-349.09141	1056.47928	1449.20557	-43.45605	935.24390	1365.76595	-63.39007	950.12442	1401.23253	-0.09687	995.84863	1203.13108	81.13008	1006.48142	1111.59761	104.67000	976.01639	1120.48350	124.00725	1207.76816	1281.49603	-517.46606	1114.64079	1207.48526	-476.12290	1148.13604	1194.14694	-543.88866	1261.71707	1022.25655	-522.31553	1302.15468	957.18247	-497.46848	1277.16323	948.30356	-522.72302	1070.54362	1096.56985	-118.75867	1090.97073	1078.92510	-314.37934	1082.45414	1089.56131	-129.98042	1113.56450	1088.44541	-312.24694	
140	1.39000000	1215.62375	624.56333	-71.09116	1262.78500	483.12687	-74.34663	1260.13719	114.09887	-90.56985	1217.98286	79.80624	-160.82733	1401.76773	81.34173	-49.17513	1438.06327	121.18114	-92.89310	1001.62321	615.78761	-367.01777	1004.81785	415.04465	-331.72607	864.21686	134.07611	-322.33742	797.31737	115.01652	-261.74177	990.50369	33.09517	-343.50172	1031.33430	57.11432	-282.18676	1277.87845	371.52126	-82.62113	1196.18976	469.38025	-41.31342	1205.98036	356.62607	-41.81475	945.71181	430.30811	-394.77009	912.86721	320.00766	-373.21442	1170.17753	908.26905	-35.44451	1211.65732	806.22655	-40.08908	1160.60626	761.22662	-37.05444	1067.09557	871.14389	-68.29414	1108.39373	763.81562	-61.92251	1040.06490	918.22146	-405.46921	1006.04819	786.82407	-403.68370	1143.14110	889.24733	-376.31348	1107.45277	759.95223	-369.53631	1154.41089	1190.23264	-80.25561	988.13085	1218.81467	-193.71990	1195.89695	1155.36666	-355.03931	1003.48470	1218.62115	-285.18958	1125.47747	1678.53302	-361.98613	1171.38759	1670.64763	-170.56360	1202.13375	1583.41113	-509.07856	1242.53468	1582.70374	-292.56959	1249.91857	1569.74182	-347.10274	1065.17357	1446.71233	-42.02097	944.07002	1363.16863	-62.38446	958.76300	1398.43586	1.07962	1005.09355	1200.09789	81.33227	1015.92746	1108.35878	104.29982	985.62975	1117.21193	123.80969	1215.50578	1282.00077	-516.99173	1121.88414	1208.13201	-476.37601	1155.62786	1195.02107	-544.08988	1268.69731	1022.70581	-522.78242	1308.58569	957.25932	-498.10766	1283.69294	948.61510	-523.58553	1078.80340	1094.78307	-119.29309	1098.93065	1077.80831	-315.00484	1090.83411	1087.73347	-130.50507	1121.43562	1087.34483	-312.79808	
141	1.40000000	1223.10843	622.72125	-73.01365	1273.83891	482.96306	-76.54516	1283.61602	114.17716	-95.22476	1242.76935	79.45525	-165.93418	1426.06688	84.70939	-53.79212	1461.31321	126.13852	-96.81740	1005.52790	615.71782	-367.72720	1006.58872	414.71795	-332.59148	864.65698	134.77242	-322.76128	797.80590	116.15626	-262.13756	990.47932	32.93635	-343.67577	1031.24109	56.89335	-282.35387	1292.53051	371.94971	-85.35625	1207.32852	466.97178	-44.44437	1220.66631	354.60277	-45.61032	948.11158	430.59086	-395.43050	914.34405	320.48270	-373.76244	1177.12638	906.19900	-35.85746	1218.67469	804.14104	-40.78675	1167.31457	759.15705	-38.52508	1074.43178	869.40810	-70.15727	1115.55398	761.97044	-63.73594	1046.43227	917.81691	-406.16296	1011.45204	786.75266	-404.32135	1149.29498	888.26158	-377.05157	1112.78968	759.21912	-370.32813	1163.03342	1188.16345	-80.51471	996.68800	1217.42843	-193.68510	1204.03945	1154.19944	-355.39639	1011.84032	1217.52089	-285.20296	1134.59127	1678.04407	-359.21277	1180.24180	1668.66666	-167.84963	1211.05457	1583.89438	-506.95615	1251.47738	1581.55853	-290.39121	1258.85472	1568.92881	-345.05761	1073.97634	1444.08311	-40.54189	952.98944	1360.44060	-61.34340	967.49804	1395.51044	2.31900	1014.45902	1196.92595	81.54356	1025.49318	1104.99495	103.89431	995.30417	1113.78015	123.62420	1223.25716	1282.48414	-516.45883	1129.10069	1208.79367	-476.55475	1163.09027	1195.89960	-544.22129	1275.50048	1023.03946	-523.25168	1314.78516	957.29850	-498.77667	1290.05167	948.83531	-524.47723	1087.18734	1092.98981	-119.77917	1107.03699	1076.65044	-315.57446	1099.26731	1085.99540	-130.94334	1129.45313	1086.17850	-313.25319	
142	1.41000000	1230.53414	620.77870	-75.08567	1284.59674	482.69612	-78.89392	1306.06532	114.54460	-99.82674	1266.45068	79.45892	-171.00497	1449.31703	88.00409	-58.48067	1483.49045	130.93755	-100.81445	1009.60955	615.63663	-368.40387	1008.60031	414.42524	-333.42865	865.08132	135.55026	-323.12223	798.35737	117.36609	-262.55085	990.46666	32.76035	-343.82630	1031.17684	56.65070	-282.49526	1306.64384	372.33738	-88.19552	1218.20573	464.59621	-47.75981	1234.85907	352.68196	-49.52626	950.63510	430.90993	-396.07008	915.75054	320.94416	-374.21444	1184.12010	903.99660	-36.20884	1225.70572	801.92026	-41.42689	1174.06834	756.97535	-40.08639	1081.86356	867.58976	-72.07349	1122.80368	760.05920	-65.65921	1052.97965	917.40427	-406.86769	1017.09544	786.64006	-404.88587	1155.61834	887.25911	-377.75543	1118.30169	758.48312	-371.06550	1171.81061	1186.11394	-80.70917	1005.26827	1216.06673	-193.67924	1212.32294	1153.01552	-355.69770	1020.28367	1216.36447	-285.21376	1143.76015	1677.50985	-356.34292	1189.21685	1666.56823	-165.05448	1220.06884	1584.35320	-504.75262	1260.50914	1580.33401	-288.14887	1267.86069	1568.05218	-342.95500	1082.88728	1441.31730	-39.02664	961.98416	1357.59848	-60.25338	976.34615	1392.46620	3.62421	1023.94719	1193.61197	81.75411	1035.15509	1101.50330	103.44674	1005.06863	1110.19177	123.44107	1231.02194	1282.95650	-515.87903	1136.31817	1209.47784	-476.65381	1170.53708	1196.79237	-544.27872	1282.06606	1023.24611	-523.74883	1320.71989	957.37480	-499.48422	1296.25303	948.97027	-525.39831	1095.67613	1091.21834	-120.21686	1115.27512	1075.46686	-316.08655	1107.72772	1084.36272	-131.31247	1137.63458	1084.95642	-313.62404	
